          <svg
            width="145"
            height="37"
            viewBox="0 0 145 37"
            fill="none"
            xmlns="http://www.w3.org/2000/svg"
            className="h-6 sm:h-[35px] sm:w-auto w-[76px]"
          >
            <g clipPath="url(#clip0)">
              <path
                d="M94.252 12.1668C95.0787 12.1668 95.7873 11.8689 96.3778 11.2731C96.9978 10.6475 97.3078 9.91759 97.3078 9.08346C97.3078 8.24932 97.0126 7.53434 96.4221 6.93853C95.8316 6.31292 95.1082 6.00012 94.252 6.00012C93.3958 6.00012 92.6724 6.31292 92.0819 6.93853C91.4914 7.53434 91.1961 8.24932 91.1961 9.08346C91.1961 9.91759 91.4914 10.6475 92.0819 11.2731C92.7019 11.8689 93.4253 12.1668 94.252 12.1668Z"
                fill="white"
              ></path>{" "}
              <path
                d="M48.1172 34.0304C46.049 35.8991 43.3799 36.8335 40.1099 36.8335C36.8399 36.8335 34.1708 35.8991 32.1026 34.0304C30.0343 32.1334 29.0002 29.5994 29.0002 26.4283V6.55224H33.8214V26.131C33.8214 27.943 34.3385 29.387 35.3726 30.4629C36.4346 31.5388 38.0137 32.0768 40.1099 32.0768C42.206 32.0768 43.7712 31.5388 44.8053 30.4629C45.8673 29.387 46.3983 27.943 46.3983 26.131V6.55224H51.2195V26.4283C51.2195 29.5994 50.1854 32.1334 48.1172 34.0304Z"
                fill="white"
              ></path>{" "}
              <path
                d="M79.2086 14.4942C81.5842 14.4942 83.4987 15.2728 84.952 16.83C86.4054 18.3873 87.132 20.4825 87.132 23.1156V36.2814H82.6043V23.4129C82.6043 21.9406 82.241 20.8081 81.5143 20.0153C80.7877 19.1942 79.7955 18.7836 78.5378 18.7836C77.1404 18.7836 76.0224 19.2508 75.184 20.1852C74.3734 21.1195 73.9682 22.521 73.9682 24.3897V36.2814H69.4405V23.4129C69.4405 21.9406 69.0911 20.8081 68.3924 20.0153C67.7216 19.1942 66.7574 18.7836 65.4997 18.7836C64.1302 18.7836 63.0123 19.265 62.1459 20.2276C61.2794 21.162 60.8462 22.5493 60.8462 24.3897V36.2814H56.3186V15.0463H60.8462V17.5945C62.1878 15.5276 64.1861 14.4942 66.8412 14.4942C69.5243 14.4942 71.5087 15.6125 72.7943 17.8493C74.1918 15.6125 76.3298 14.4942 79.2086 14.4942Z"
                fill="white"
              ></path>{" "}
              <path
                d="M91.9778 15.0463V36.2814H96.5054V15.0463H91.9778Z"
                fill="white"
              ></path>{" "}
              <path
                d="M111.656 36.8335C108.498 36.8335 105.857 35.7576 103.733 33.6057C101.637 31.4539 100.589 28.8066 100.589 25.6638C100.589 22.4927 101.637 19.8454 103.733 17.7219C105.857 15.5701 108.498 14.4942 111.656 14.4942C113.697 14.4942 115.555 14.9896 117.232 15.9806C118.909 16.9716 120.167 18.3023 121.005 19.9728L117.106 22.2662C116.631 21.2469 115.905 20.4541 114.926 19.8879C113.976 19.2933 112.872 18.996 111.614 18.996C109.77 18.996 108.219 19.633 106.961 20.9072C105.731 22.1813 105.116 23.7668 105.116 25.6638C105.116 27.5608 105.731 29.1464 106.961 30.4205C108.219 31.6946 109.77 32.3316 111.614 32.3316C112.844 32.3316 113.948 32.0343 114.926 31.4398C115.933 30.8452 116.687 30.0524 117.19 29.0614L121.089 31.3123C120.195 33.0111 118.909 34.356 117.232 35.347C115.555 36.338 113.697 36.8335 111.656 36.8335Z"
                fill="white"
              ></path>{" "}
              <path
                fillRule="evenodd"
                clipRule="evenodd"
                d="M126.05 33.6057C128.202 35.7575 130.815 36.8335 133.889 36.8335C136.992 36.8335 139.605 35.7575 141.729 33.6057C143.881 31.4539 144.957 28.8066 144.957 25.6638C144.957 22.521 143.881 19.8737 141.729 17.7219C139.605 15.5701 136.992 14.4942 133.889 14.4942C130.815 14.4942 128.202 15.5701 126.05 17.7219C123.898 19.8737 122.822 22.521 122.822 25.6638C122.822 28.8066 123.898 31.4539 126.05 33.6057ZM133.889 32.3741C132.045 32.3741 130.493 31.737 129.236 30.4629C127.978 29.1888 127.349 27.5891 127.349 25.6638C127.349 23.7385 127.978 22.1388 129.236 20.8647C130.493 19.5906 132.045 18.9535 133.889 18.9535C135.734 18.9535 137.285 19.5906 138.543 20.8647C139.8 22.1388 140.429 23.7385 140.429 25.6638C140.429 27.5891 139.8 29.1888 138.543 30.4629C137.285 31.737 135.734 32.3741 133.889 32.3741Z"
                fill="white"
              ></path>
            </g>{" "}
            <g clipPath="url(#clip1)">
              <path
                d="M0.47278 0C9.20655 0.645819 14.0446 0.626689 22.5989 0C22.5989 0 21.7265 9.63051 22.5989 15.7117C22.7556 16.8044 23.0717 18.5 23.0717 18.5H0C0 18.5 0.31602 16.8044 0.47278 15.7117C0.537928 15.2576 0.593347 14.7837 0.640125 14.2955C1.21976 8.24586 0.47278 0 0.47278 0Z"
                fill="#F81A5D"
              ></path>{" "}
              <path
                d="M11.6111 12.6426C12.9546 12.6426 14.0321 12.1761 14.8818 11.3752C15.7316 10.5622 16.1949 9.37662 16.1949 8.01758H14.1856C14.1856 8.79417 13.9575 9.38518 13.5211 9.84628C13.0962 10.3074 12.4724 10.5283 11.6111 10.5283C10.7499 10.5283 10.0819 10.3074 9.64551 9.84628C9.22063 9.38518 9.03667 8.79417 9.03667 8.01758H7.02734C7.02734 9.37662 7.45222 10.5622 8.30198 11.3752C9.15173 12.1761 10.2676 12.6426 11.6111 12.6426Z"
                fill="#FDFFFC"
              ></path>
            </g>{" "}
            <defs>
              <clipPath id="clip0">
                <rect
                  width="115.957"
                  height="30.8333"
                  fill="white"
                  transform="translate(29.0432 6.16663)"
                ></rect>
              </clipPath>{" "}
              <clipPath id="clip1">
                <rect width="23.0717" height="18.5" fill="white"></rect>
              </clipPath>
            </defs>
          </svg>